<svg width="14.4375" height="21" viewBox="0 0 14.4375 21" fill="none" xmlns="http://www.w3.org/2000/svg">
<g clip-path="url(#clip0_1_787)">
<path fill-rule="evenodd" clip-rule="evenodd" d="M8.58639 1.65119C9.34967 1.65119 10.0656 1.75351 10.7285 1.94328C10.0795 0.430722 8.73202 0 7.23237 0C5.72978 0 4.37994 0.432415 3.73242 1.95219C4.39044 1.75575 5.10331 1.65119 5.86399 1.65119H8.58639ZM5.6894 3.16974C2.06503 3.16974 0 6.021 0 9.53821V13.1512C0 13.503 0.293813 13.7812 0.65625 13.7812H13.7812C14.1437 13.7812 14.4375 13.503 14.4375 13.1512V9.53821C14.4375 6.021 12.0362 3.16974 8.4118 3.16974H5.6894ZM7.21362 9.56946C8.48215 9.56946 9.5105 8.54111 9.5105 7.27258C9.5105 6.00405 8.48215 4.97571 7.21362 4.97571C5.94509 4.97571 4.91675 6.00405 4.91675 7.27258C4.91675 8.54111 5.94509 9.56946 7.21362 9.56946ZM0 15.9049C0 15.5532 0.293813 15.2681 0.65625 15.2681H13.7812C14.1437 15.2681 14.4375 15.5532 14.4375 15.9049V19.726C14.4375 20.4294 13.8499 20.9997 13.125 20.9997H1.3125C0.587626 20.9997 0 20.4294 0 19.726V15.9049Z" fill="#E33E3F"/>
</g>
<defs>
<clipPath id="clip0_1_787">
<rect width="14.4375" height="21" fill="white"/>
</clipPath>
</defs>
</svg>
